<svg xmlns="http://www.w3.org/2000/svg" xmlns:xlink="http://www.w3.org/1999/xlink" width="2000" zoomAndPan="magnify" viewBox="0 0 1500 1499.999933" height="2000" preserveAspectRatio="xMidYMid meet" version="1.0"><defs><clipPath id="2cae167423"><path d="M 421 192.617188 L 1362 192.617188 L 1362 493 L 421 493 Z M 421 192.617188 " clip-rule="nonzero"/></clipPath><clipPath id="5e6cd3708b"><path d="M 36 1013 L 1362 1013 L 1362 1307.117188 L 36 1307.117188 Z M 36 1013 " clip-rule="nonzero"/></clipPath></defs><g clip-path="url(#2cae167423)"><path fill="#00bf63" d="M 1361.152344 492.507812 L 421.597656 492.507812 L 557.507812 192.617188 L 863.601562 192.617188 C 1066.875 192.617188 1256.265625 301.347656 1354.058594 479.507812 C 1356.71875 483.640625 1358.789062 488.074219 1361.152344 492.507812 Z M 1361.152344 492.507812 " fill-opacity="1" fill-rule="nonzero"/></g><path fill="#00bf63" d="M 693.417969 594.4375 L 1406.355469 594.4375 C 1406.355469 594.4375 1463.082031 707.597656 1406.355469 899.941406 L 557.507812 899.941406 Z M 693.417969 594.4375 " fill-opacity="1" fill-rule="nonzero"/><g clip-path="url(#5e6cd3708b)"><path fill="#00bf63" d="M 172.824219 1013.101562 L 1361.152344 1013.101562 C 1361.152344 1013.101562 1264.242188 1234.398438 1008.082031 1294.078125 C 968.488281 1303.238281 928.011719 1307.375 887.238281 1307.375 L 36.914062 1307.375 Z M 172.824219 1013.101562 " fill-opacity="1" fill-rule="nonzero"/></g></svg>